<?xml version="1.0" standalone="no"?>
<!DOCTYPE svg PUBLIC "-//W3C//DTD SVG 20010904//EN"
 "http://www.w3.org/TR/2001/REC-SVG-20010904/DTD/svg10.dtd">
<svg version="1.0" xmlns="http://www.w3.org/2000/svg"
 width="1280.000000pt" height="720.000000pt" viewBox="0 0 1280.000000 720.000000"
 preserveAspectRatio="xMidYMid meet">

<g transform="translate(0.000000,720.000000) scale(0.100000,-0.100000)"
fill="#000000" stroke="none">
<path d="M0 3600 l0 -3600 6400 0 6400 0 0 3600 0 3600 -6400 0 -6400 0 0
-3600z m8838 3345 c-3 -3 -9 2 -12 12 -6 14 -5 15 5 6 7 -7 10 -15 7 -18z
m780 -685 c-7 -10 -14 -18 -15 -16 -6 6 9 36 18 36 5 0 4 -9 -3 -20z m15 -15
c-3 -9 -8 -14 -10 -11 -3 3 -2 9 2 15 9 16 15 13 8 -4z m44 -27 c-3 -8 -6 -5
-6 6 -1 11 2 17 5 13 3 -3 4 -12 1 -19z m-234 -605 c-7 -2 -19 -2 -25 0 -7 3
-2 5 12 5 14 0 19 -2 13 -5z m-4145 -70 c-10 -2 -26 -2 -35 0 -10 3 -2 5 17 5
19 0 27 -2 18 -5z m1201 -189 c0 -126 -3 -184 -10 -182 -7 2 -10 63 -9 177 1
157 3 191 15 191 2 0 4 -84 4 -186z m-794 -201 c33 -75 49 -123 41 -123 -7 0
-45 73 -85 163 -40 89 -80 170 -88 179 -11 12 -13 26 -8 45 7 26 10 22 47 -57
22 -47 64 -140 93 -207z m567 139 c-24 -70 -42 -131 -42 -136 1 -5 -3 -12 -10
-16 -6 -4 -13 -19 -16 -33 -9 -52 -106 -327 -115 -327 -17 0 -9 36 41 175 28
77 53 147 55 155 2 8 4 16 5 18 2 1 3 5 4 10 1 4 5 13 9 20 14 22 87 245 87
266 0 16 3 17 12 8 10 -10 4 -39 -30 -140z m1632 -121 c-10 -127 -21 -231 -25
-231 -12 0 -19 44 -14 95 9 93 27 350 27 373 0 21 2 22 15 9 12 -12 12 -44 -3
-246z m-2459 134 c4 -66 3 -95 -3 -86 -6 7 -10 49 -11 92 -1 43 -4 86 -8 96
-4 13 -3 15 5 8 6 -5 14 -55 17 -110z m4680 105 c3 -5 1 -10 -4 -10 -6 0 -11
5 -11 10 0 6 2 10 4 10 3 0 8 -4 11 -10z m-3024 -155 c1 -94 -2 -140 -10 -143
-7 -2 -11 15 -11 51 0 65 12 239 16 234 2 -1 4 -65 5 -142z m3352 120 c-3 -9
-8 -14 -10 -11 -3 3 -2 9 2 15 9 16 15 13 8 -4z m-723 -5 c0 -5 -2 -10 -4 -10
-3 0 -8 5 -11 10 -3 6 -1 10 4 10 6 0 11 -4 11 -10z m-1480 -30 c13 -9 13 -10
0 -10 -8 0 -22 5 -30 10 -13 9 -13 10 0 10 8 0 22 -5 30 -10z m2165 -29 c-14
-21 -28 -54 -31 -73 -5 -30 -3 -36 16 -41 12 -3 20 -9 17 -14 -3 -5 3 -32 12
-61 15 -45 20 -50 31 -37 7 8 17 15 23 15 6 0 -1 -13 -16 -28 -33 -34 -36 -83
-7 -114 21 -22 27 -44 10 -33 -15 9 -60 -72 -81 -144 -11 -36 -53 -203 -94
-371 -41 -168 -79 -318 -84 -335 -5 -16 -13 -51 -16 -77 -10 -65 -42 -98 -94
-98 -30 0 -44 6 -55 22 -22 31 -20 48 10 79 27 28 35 57 109 374 73 316 68
300 96 296 24 -3 24 -3 5 17 -17 20 -18 24 0 113 l17 92 -34 29 c-19 16 -29
27 -22 24 17 -9 35 28 21 42 -9 9 -9 12 1 12 8 0 11 7 8 20 -4 16 0 20 19 20
13 0 24 -5 24 -11 0 -5 -4 -7 -10 -4 -15 9 -12 -11 4 -24 11 -9 15 -8 20 5 11
29 6 86 -11 114 -14 24 -15 34 -5 55 7 14 21 29 31 33 11 4 19 10 18 14 -3 10
74 128 84 128 5 0 -2 -17 -16 -39z m-6191 -26 c11 -19 23 -35 28 -35 5 0 0 14
-12 30 -12 17 -17 30 -11 30 24 0 100 -218 101 -287 0 -43 -27 -25 -35 22 -9
62 -38 144 -67 191 -44 70 -50 84 -36 84 8 0 22 -16 32 -35z m-964 -25 c0 -5
-2 -10 -4 -10 -3 0 -8 5 -11 10 -3 6 -1 10 4 10 6 0 11 -4 11 -10z m5950 -36
c0 -2 -9 0 -20 6 -11 6 -20 13 -20 16 0 2 9 0 20 -6 11 -6 20 -13 20 -16z
m-5950 -14 c0 -10 -4 -22 -10 -25 -6 -4 -10 7 -10 25 0 18 4 29 10 25 6 -3 10
-15 10 -25z m-2516 -28 c-23 -20 -44 -47 -48 -58 -8 -27 -42 -58 -50 -46 -3 5
6 20 19 32 14 13 25 31 25 41 0 10 18 29 43 43 57 35 60 32 11 -12z m7461 3
l27 -34 -11 -113 c-5 -62 -22 -241 -36 -398 -33 -357 -47 -448 -81 -517 -38
-79 -120 -155 -218 -203 -102 -50 -231 -78 -224 -47 2 7 -1 13 -7 14 -5 1 -9
-4 -9 -11 2 -19 -109 -20 -179 -1 -83 22 -133 50 -197 111 -65 61 -103 132
-119 218 -15 81 -14 239 1 254 20 20 58 14 68 -10 5 -13 9 -16 9 -8 1 28 -14
37 -66 42 l-53 5 0 -33 c0 -18 -5 -36 -11 -40 -8 -4 -9 0 -4 15 4 12 2 21 -4
21 -6 0 -11 -7 -11 -15 0 -8 -5 -15 -11 -15 -6 0 -9 9 -6 19 2 10 1 25 -4 32
-6 10 -9 6 -9 -13 0 -16 -5 -28 -11 -28 -6 0 -8 9 -3 23 4 12 11 37 15 56 8
37 20 49 60 57 l26 6 8 221 c5 122 9 247 9 278 1 31 7 63 15 72 18 23 54 21
76 -3 18 -19 19 -39 16 -258 -1 -130 -4 -258 -6 -285 -3 -41 0 -51 22 -71 20
-19 24 -30 19 -50 -4 -16 -2 -26 5 -26 15 0 7 -45 -8 -46 -7 -1 -20 -2 -28 -3
-30 -2 -11 -200 25 -272 11 -20 40 -55 66 -78 144 -127 452 -103 596 46 76 78
84 118 118 563 29 364 48 521 65 540 25 28 40 25 70 -15z m1073 8 c7 -7 20
-13 28 -13 30 0 172 -53 222 -83 79 -47 162 -169 162 -237 0 -33 -23 -71 -51
-86 -29 -15 -53 -11 -81 14 -19 16 -24 67 -8 77 19 12 10 36 -32 81 -48 52
-108 85 -187 104 -66 16 -138 8 -228 -24 -79 -29 -132 -25 -148 11 -5 12 -18
24 -30 27 -17 5 -18 8 -5 16 13 8 12 10 -5 10 -18 1 -18 2 3 11 13 5 30 16 38
24 20 19 44 19 44 0 0 -20 6 -19 43 7 22 16 48 23 87 24 67 3 144 28 118 39
-10 4 -18 11 -18 16 0 11 31 -1 48 -18z m2272 -3 c10 0 22 -4 25 -10 10 -16
25 -12 19 5 -4 9 0 15 9 15 8 0 17 -7 21 -15 3 -8 11 -15 18 -14 10 0 10 2 0
6 -10 4 -10 8 -1 19 9 11 15 11 25 3 8 -6 14 -17 14 -23 0 -6 32 -20 70 -30
104 -26 226 -115 256 -185 8 -18 14 -53 14 -78 0 -82 -85 -132 -148 -87 -28
20 -28 58 0 78 l23 16 -20 37 c-19 35 -95 93 -122 93 -7 0 -13 6 -13 13 0 19
-13 34 -37 41 -15 5 -23 3 -23 -4 0 -6 4 -9 8 -6 12 7 35 -10 28 -22 -4 -7
-17 -7 -35 -2 -18 5 -33 4 -39 -2 -11 -11 -32 -3 -32 13 0 5 8 9 18 9 9 0 23
4 31 9 9 6 4 9 -15 9 -48 0 -56 -14 -33 -58 19 -37 18 -97 -2 -85 -4 3 -6 12
-2 20 4 12 -3 15 -30 15 -29 0 -39 6 -54 30 -11 19 -25 30 -39 30 -65 0 -292
-103 -264 -120 15 -9 2 -19 -32 -25 -35 -6 -178 -172 -178 -206 0 -5 15 -6 33
-3 31 6 30 5 -16 -25 -55 -36 -68 -61 -103 -200 -28 -111 -30 -192 -7 -275 13
-49 27 -71 68 -113 58 -57 137 -90 178 -73 l22 9 -22 0 c-25 1 -39 16 -23 26
5 3 10 1 10 -4 0 -6 9 -11 20 -11 14 0 20 6 18 18 -2 13 4 17 27 17 22 0 34
-8 50 -32 22 -36 43 -40 110 -23 53 14 118 42 127 55 4 5 11 10 15 10 4 1 18
4 30 8 21 8 94 -21 107 -41 3 -4 -26 -27 -64 -50 -98 -61 -261 -115 -276 -91
-3 5 -26 8 -52 8 -26 -1 -39 -3 -29 -6 19 -5 24 -23 6 -23 -8 0 -7 -6 2 -16
12 -15 10 -16 -24 -12 -29 3 -36 1 -32 -10 9 -25 -20 -6 -33 21 -9 18 -26 30
-54 38 -49 13 -134 69 -209 137 -47 43 -58 61 -79 124 -31 95 -31 226 -1 342
26 98 26 99 -1 85 -23 -12 -23 -12 -4 10 11 11 22 19 24 16 3 -3 29 40 58 94
28 55 62 113 74 128 41 53 102 113 110 108 4 -3 14 3 21 13 13 15 12 16 -3 3
-28 -21 -21 -7 9 20 15 13 21 16 14 7 -29 -38 10 -16 41 23 39 48 171 116 287
148 41 12 80 26 85 32 8 9 8 10 -1 5 -8 -4 -13 -1 -13 7 0 18 14 31 18 18 2
-6 12 -11 22 -11z m-2420 -10 c0 -5 -5 -10 -11 -10 -5 0 -7 5 -4 10 3 6 8 10
11 10 2 0 4 -4 4 -10z m-7753 -16 c-3 -3 -12 -4 -19 -1 -8 3 -5 6 6 6 11 1 17
-2 13 -5z m3941 -10 c25 -17 31 -77 10 -91 -9 -5 -11 -22 -7 -53 l6 -45 1 48
2 48 28 -15 c60 -32 94 -80 160 -231 22 -49 89 -191 150 -315 60 -124 140
-289 177 -368 51 -106 75 -146 94 -155 35 -16 41 -67 12 -96 -35 -35 -69 -27
-118 27 -48 51 -117 178 -109 199 3 8 -78 183 -180 391 -103 207 -193 393
-201 412 -13 32 -13 24 -8 -95 12 -273 51 -686 64 -694 10 -6 11 -14 3 -27 -7
-13 -4 -27 14 -56 25 -39 31 -68 14 -68 -5 0 -7 6 -4 14 3 8 1 17 -5 21 -6 3
-11 0 -11 -9 0 -8 -3 -21 -6 -30 -4 -10 -1 -16 9 -16 32 0 37 -70 7 -100 -26
-26 -63 -25 -94 3 -24 21 -37 67 -50 182 -1 12 -5 25 -8 30 -3 6 -4 22 -3 37
3 20 0 25 -11 21 -8 -3 -14 -9 -14 -14 0 -4 -7 -6 -15 -3 -24 10 -17 24 15 31
24 4 30 11 30 32 0 26 -37 472 -61 726 -9 101 -9 143 0 187 17 80 58 108 109
72z m1173 6 c20 -11 50 -61 56 -95 3 -11 7 -135 10 -276 5 -249 5 -255 26
-265 29 -12 45 -59 29 -84 -15 -25 -15 -40 -1 -40 6 0 9 7 5 15 -3 8 -1 15 4
15 13 0 13 -27 1 -34 -5 -4 -21 -7 -35 -8 l-26 -2 0 -222 c0 -210 -1 -223 -21
-248 -14 -17 -29 -26 -42 -24 -42 6 -47 38 -47 301 0 158 -4 247 -10 247 -5 0
-10 -6 -10 -14 0 -23 -15 -27 -49 -15 -24 9 -30 16 -25 28 3 9 10 32 15 51 8
35 32 60 57 60 22 0 13 493 -10 535 -30 55 18 104 73 75z m-3226 -21 c0 -25
25 -49 42 -42 12 5 14 3 8 -8 -7 -11 -6 -12 6 -2 19 15 158 -8 238 -41 170
-69 323 -218 402 -392 17 -37 32 -75 34 -83 42 -182 45 -302 11 -414 -39 -130
-160 -254 -289 -296 -62 -21 -168 -39 -204 -36 -10 2 -58 6 -108 10 -155 12
-277 58 -391 146 -59 45 -107 102 -96 114 4 5 2 5 -5 2 -26 -16 -134 190 -168
322 -19 73 -19 247 -1 316 9 32 10 58 5 73 -5 13 -9 33 -9 45 l1 22 19 -23 19
-23 10 38 c6 21 13 51 16 66 10 52 89 56 115 7 13 -23 6 -82 -16 -140 -7 -19
-22 -60 -33 -90 -23 -61 -26 -114 -11 -240 8 -68 19 -103 53 -175 84 -172 191
-271 352 -324 108 -36 261 -50 344 -32 196 42 311 187 311 391 0 106 -18 178
-49 195 -17 10 -21 14 -10 15 43 1 -39 164 -129 257 -92 96 -218 161 -344 179
-40 5 -48 4 -48 -10 0 -34 -89 -67 -117 -44 -15 12 -17 28 -3 28 6 0 10 -7 10
-15 0 -8 5 -15 11 -15 6 0 9 7 5 15 -3 8 -2 15 3 15 4 0 6 12 3 28 -4 22 -2
25 9 15 20 -20 31 -15 19 7 -9 16 -15 18 -30 10 -11 -6 -20 -17 -20 -24 0 -8
-16 -17 -37 -20 -21 -4 -66 -16 -100 -28 -72 -25 -108 -17 -119 28 -10 37 23
76 81 95 47 16 75 32 101 57 20 19 31 15 42 -15 6 -16 11 -22 11 -15 1 6 8 12
16 12 22 0 30 27 14 46 -12 14 -11 16 6 12 11 -2 20 -11 20 -19z m-130 -9 c-3
-5 -10 -10 -16 -10 -5 0 -9 5 -9 10 0 6 7 10 16 10 8 0 12 -4 9 -10z m-1961
-100 c2 -36 20 -114 39 -175 19 -60 60 -193 92 -295 31 -102 63 -203 70 -225
8 -22 21 -66 31 -98 14 -47 23 -60 49 -73 27 -12 34 -23 39 -56 5 -30 3 -45
-9 -58 -20 -22 -19 -32 9 -110 18 -53 27 -66 47 -68 33 -5 49 -20 49 -47 0
-30 -44 -65 -81 -65 -41 0 -115 42 -111 63 2 10 -9 54 -24 100 -34 103 -37
127 -16 144 9 7 13 12 7 12 -25 -5 -63 15 -74 37 -12 28 -24 30 -46 8 -9 -9
-19 -13 -23 -10 -8 9 37 45 56 46 6 0 12 6 12 13 0 8 -29 105 -64 218 -192
612 -193 614 -161 649 10 11 15 20 10 20 -4 0 -2 7 5 15 7 8 23 15 36 15 12 0
26 5 30 11 12 21 24 -7 28 -71z m956 59 c0 -6 -4 -7 -10 -4 -5 3 -10 11 -10
16 0 6 5 7 10 4 6 -3 10 -11 10 -16z m6144 -54 c6 -10 22 -29 36 -42 l25 -24
-32 16 c-32 15 -79 82 -52 73 7 -2 17 -13 23 -23z m676 -10 c20 -21 21 -28 11
-52 -6 -16 -28 -41 -47 -57 -45 -35 -74 -97 -74 -156 0 -56 15 -85 61 -122 46
-37 111 -54 284 -73 180 -20 238 -31 304 -62 160 -76 217 -244 130 -389 -19
-31 -52 -72 -74 -91 -92 -79 -266 -139 -432 -150 -77 -5 -94 -3 -108 11 -9 9
-28 16 -43 15 -25 -1 -25 -1 6 -10 26 -8 31 -13 23 -23 -8 -10 -7 -16 3 -25
24 -20 7 -41 -33 -41 -31 0 -40 5 -49 25 -7 14 -12 31 -12 38 0 7 -15 18 -32
26 -133 55 -202 104 -242 174 -27 48 -70 219 -61 247 10 30 50 51 79 40 20 -7
26 -20 35 -67 27 -143 33 -160 61 -195 33 -40 131 -94 155 -84 8 3 15 12 15
20 0 17 36 29 71 24 16 -2 29 -15 39 -36 l15 -32 85 5 c113 8 201 29 274 66
155 78 198 215 99 311 -51 49 -109 66 -303 89 -185 22 -273 44 -342 88 -126
80 -162 248 -80 370 41 61 121 141 141 141 10 0 28 -11 41 -25z m-6830 -3 c0
-2 -10 -13 -22 -23 l-23 -20 32 16 c42 20 40 20 63 -17 l19 -32 -25 -33 c-14
-18 -23 -37 -20 -41 3 -5 59 -223 125 -486 99 -392 125 -482 146 -507 31 -38
31 -53 0 -84 -29 -29 -47 -31 -86 -8 -29 17 -43 47 -69 141 -10 38 -14 43 -33
38 -54 -16 -89 -18 -119 -6 -34 13 -743 709 -819 803 -34 42 -39 55 -39 100 0
55 19 87 53 87 24 0 67 -37 67 -57 0 -39 71 -120 408 -462 348 -354 370 -374
405 -375 27 -1 37 2 37 14 0 18 -40 175 -169 670 -28 109 -32 143 -10 110 6
-10 7 -4 3 20 -4 19 -11 40 -16 47 -5 7 -6 18 -2 24 4 7 3 9 -4 5 -6 -3 -16 3
-22 14 -14 26 2 58 32 62 30 4 88 4 88 0z m4260 -28 c10 -26 -12 -94 -142
-444 -44 -118 -95 -257 -113 -309 -18 -52 -39 -97 -46 -102 -8 -4 -11 -11 -7
-14 7 -7 -19 -93 -35 -112 -18 -23 -74 -15 -96 13 -26 33 -26 49 -1 74 11 11
20 26 20 33 0 7 4 17 9 22 9 11 53 126 121 315 23 63 57 156 75 205 19 50 46
124 60 165 14 41 36 95 48 120 34 69 88 86 107 34z m5280 6 c0 -5 -7 -7 -15
-4 -8 4 -15 8 -15 10 0 2 7 4 15 4 8 0 15 -4 15 -10z m-2655 -10 c3 -5 2 -10
-4 -10 -5 0 -13 5 -16 10 -3 6 -2 10 4 10 5 0 13 -4 16 -10z m-245 -4 c0 -2
-7 -7 -16 -10 -8 -3 -12 -2 -9 4 6 10 25 14 25 6z m270 -76 c0 -33 -3 -40 -20
-40 -11 0 -20 7 -20 15 0 8 -9 15 -19 15 -28 0 -36 18 -17 39 9 10 16 23 16
30 0 8 9 7 30 -4 26 -13 30 -21 30 -55z m-7033 7 c4 -21 3 -21 -11 -2 -8 11
-12 24 -9 28 7 12 16 0 20 -26z m7206 -69 c0 -57 -18 -101 -60 -149 -31 -34
-39 -36 -46 -10 -6 24 6 43 24 39 8 -2 21 11 29 29 8 18 21 33 28 33 17 0 15
62 -3 86 -8 10 -15 30 -15 44 l0 24 21 -21 c17 -17 22 -34 22 -75z m-5913 42
c0 -5 -5 -10 -11 -10 -5 0 -7 5 -4 10 3 6 8 10 11 10 2 0 4 -4 4 -10z m1033
-17 c-6 -2 -9 -13 -6 -24 10 -36 -62 -163 -120 -213 -28 -26 -58 -46 -66 -46
-7 0 7 18 32 40 45 40 97 119 112 170 15 50 37 90 48 83 8 -5 8 -8 0 -10z
m6137 3 c0 -2 -8 -10 -17 -17 -16 -13 -17 -12 -4 4 13 16 21 21 21 13z m-7085
-84 c-3 -3 -11 0 -18 7 -9 10 -8 11 6 5 10 -3 15 -9 12 -12z m4474 -35 c-7
-15 -15 -27 -19 -27 -17 0 -18 15 -4 42 20 38 41 24 23 -15z m1840 -29 c-10
-40 -19 -94 -19 -119 0 -29 -6 -51 -15 -59 -13 -10 -15 -9 -15 9 0 12 -4 19
-10 16 -6 -4 -8 8 -4 32 8 57 22 120 23 106 3 -38 41 27 41 70 0 9 4 17 9 17
5 0 1 -33 -10 -72z m-3749 -105 c25 -53 30 -76 24 -103 l-6 -35 -17 60 c-10
33 -27 79 -39 103 -18 34 -20 42 -7 42 9 0 27 -28 45 -67z m-3317 7 c3 -11 1
-20 -4 -20 -5 0 -9 4 -9 9 0 5 -3 17 -7 27 -4 11 -3 15 4 11 6 -4 13 -16 16
-27z m1230 -67 c-7 -2 -19 -2 -25 0 -7 3 -2 5 12 5 14 0 19 -2 13 -5z m7977
-183 c11 -6 24 -28 30 -49 8 -32 7 -48 -8 -88 -15 -41 -22 -48 -48 -51 -19 -2
-40 4 -54 16 -19 16 -21 21 -11 40 7 12 11 42 10 66 -4 67 30 93 81 66z
m-6580 -330 c0 -11 -2 -20 -4 -20 -2 0 -6 9 -9 20 -3 11 -1 20 4 20 5 0 9 -9
9 -20z m-3690 -55 c13 -14 21 -25 18 -25 -2 0 -15 11 -28 25 -13 14 -21 25
-18 25 2 0 15 -11 28 -25z m5016 -260 c9 -22 -4 -65 -20 -65 -7 0 -19 7 -26
15 -7 9 -8 15 -2 15 5 0 13 11 16 25 7 28 24 33 32 10z m1047 -45 c3 -11 2
-20 -2 -20 -5 0 -16 9 -26 20 -18 19 -17 20 2 20 12 0 23 -8 26 -20z m-48 -40
c3 -5 1 -10 -4 -10 -6 0 -11 5 -11 10 0 6 2 10 4 10 3 0 8 -4 11 -10z m5 -46
c0 -8 -4 -14 -8 -14 -4 0 -8 9 -8 19 0 11 4 17 8 15 4 -3 8 -12 8 -20z m1569
-50 c-5 -25 -10 -61 -13 -80 -2 -19 -7 -38 -11 -42 -13 -11 3 138 16 154 17
20 17 19 8 -32z m-1569 -4 c0 -11 -4 -20 -10 -20 -5 0 -10 9 -10 20 0 11 5 20
10 20 6 0 10 -9 10 -20z m1680 -210 c0 -5 -2 -10 -4 -10 -3 0 -8 5 -11 10 -3
6 -1 10 4 10 6 0 11 -4 11 -10z m-6241 -105 c-3 -2 -16 10 -29 28 l-23 32 29
-27 c15 -15 26 -30 23 -33z m91 10 c32 -18 25 -18 -25 0 -22 8 -31 14 -20 14
11 0 31 -6 45 -14z m1931 -51 c13 -16 12 -16 -7 -6 -11 6 -27 19 -35 28 -13
16 -12 16 7 6 11 -6 27 -19 35 -28z m-2051 -15 c0 -19 -25 -7 -49 23 -12 16
-11 17 18 2 17 -9 31 -20 31 -25z m-125 11 c3 -5 1 -10 -4 -10 -6 0 -11 5 -11
10 0 6 2 10 4 10 3 0 8 -4 11 -10z m886 -10 c-28 -24 -60 -28 -41 -6 6 8 21
17 33 19 12 2 24 5 27 5 3 1 -6 -8 -19 -18z m97 4 c14 -14 14 -26 4 -97 -12
-81 -12 -81 14 -108 26 -27 25 -49 -1 -49 -8 0 -19 -9 -25 -19 -18 -35 -11
-36 24 -2 19 18 36 29 39 24 10 -17 -17 -103 -33 -103 -10 0 -11 -3 -4 -8 9
-5 94 -429 94 -466 0 -4 11 -11 25 -16 84 -32 58 -213 -34 -241 -49 -15 -92 5
-170 76 -31 28 -214 189 -406 357 -193 168 -356 316 -363 329 -14 28 -33 113
-33 147 1 12 -4 22 -10 22 -16 0 -3 -77 29 -177 20 -63 31 -83 47 -87 37 -9
51 -49 36 -106 -12 -48 -11 -55 40 -227 58 -198 65 -212 85 -186 11 15 13 8 9
-52 -5 -74 -18 -95 -60 -95 -30 0 -52 27 -64 80 -6 25 -38 127 -71 228 -49
147 -59 186 -49 198 10 12 7 20 -13 42 -37 40 -60 81 -52 93 3 6 -3 5 -14 -2
-31 -19 -39 -3 -13 25 18 19 20 27 11 50 -5 15 -14 25 -18 22 -8 -5 -35 76
-35 104 1 103 2 109 46 155 48 49 76 56 127 30 39 -20 68 -64 83 -125 12 -50
27 -67 27 -30 0 11 5 20 10 20 15 0 12 -36 -5 -50 -13 -11 -12 -16 6 -41 11
-16 75 -77 142 -136 67 -59 124 -110 127 -113 3 -3 43 -39 90 -80 47 -41 110
-97 140 -125 31 -27 69 -61 85 -75 17 -14 70 -60 120 -103 75 -66 90 -75 96
-60 4 13 1 19 -12 21 -26 5 -59 50 -59 82 0 15 -12 85 -26 156 -40 194 -73
388 -67 394 3 3 13 -6 24 -19 10 -13 19 -18 19 -11 0 7 -16 27 -35 44 -19 18
-35 42 -35 54 0 12 -4 22 -10 22 -5 0 -7 7 -4 15 4 8 1 15 -5 15 -6 0 -11 -5
-11 -12 0 -9 -3 -9 -11 -1 -13 13 -4 33 15 33 8 0 16 19 20 49 3 27 18 66 32
86 17 26 20 36 10 32 -30 -12 -16 4 17 18 40 18 36 18 55 -1z m3919 8 c7 -4
17 -37 22 -73 9 -68 8 -88 -14 -384 -8 -104 -19 -271 -26 -370 -13 -193 -22
-225 -63 -225 -39 0 -64 30 -71 86 -6 45 -4 52 12 56 18 5 20 23 32 219 20
355 32 483 45 504 8 12 10 28 5 40 -9 25 -11 139 -2 148 9 9 45 8 60 -1z
m-4496 -31 c13 -11 22 -22 19 -24 -3 -3 -18 6 -35 19 -16 13 -25 24 -19 24 7
0 22 -9 35 -19z m5838 4 c51 -26 50 -113 -1 -149 -17 -12 -48 -16 -137 -16
-108 0 -116 1 -140 24 l-26 25 -25 -21 c-20 -17 -21 -20 -5 -14 32 13 48 12
53 -3 3 -10 0 -12 -12 -8 -11 5 -16 1 -16 -13 0 -10 5 -22 10 -25 18 -11 -10
-35 -39 -35 -21 0 -31 7 -42 33 l-14 32 -110 3 c-116 3 -179 -8 -189 -34 -3
-8 -11 -56 -16 -107 -6 -51 -13 -99 -16 -109 -3 -10 10 -32 34 -57 l39 -41
226 0 227 0 16 25 c35 53 84 37 84 -28 0 -81 -40 -96 -246 -95 -87 0 -199 0
-247 -1 -74 -2 -94 2 -123 19 -19 12 -34 17 -34 11 0 -6 -7 -59 -15 -118 -8
-59 -20 -142 -25 -183 -17 -119 -20 -130 -45 -146 -70 -46 -142 72 -84 137 11
13 18 18 14 12 -3 -7 -2 -13 3 -13 4 0 21 102 36 228 46 372 64 481 86 517 41
66 94 84 257 86 l121 2 -1 26 c-2 22 3 26 30 29 29 3 34 -1 57 -45 23 -43 26
-46 32 -25 6 21 11 22 105 22 91 0 99 1 99 19 0 11 10 27 22 35 27 19 23 19
57 1z m1149 -5 c36 -22 58 -60 48 -85 -3 -9 -25 -25 -49 -35 -45 -20 -89 -24
-422 -35 -93 -3 -182 -11 -197 -16 -32 -13 -42 -37 -66 -156 -19 -90 -19 -92
1 -126 11 -20 29 -38 41 -41 29 -8 272 -7 383 0 88 7 90 7 85 30 -4 20 0 24
22 24 81 0 124 -71 73 -118 -38 -36 -71 -40 -329 -44 -238 -3 -244 -3 -280 20
l-36 23 -10 -48 c-6 -27 -16 -81 -23 -122 -12 -70 -12 -74 8 -90 29 -22 45
-58 38 -81 -5 -14 -2 -20 10 -20 12 0 15 -5 10 -21 l-7 -22 223 8 c123 5 238
8 255 7 23 -1 34 4 44 23 17 31 74 36 89 7 15 -28 17 -100 3 -114 -16 -16 -16
4 1 21 6 8 -1 4 -18 -7 -16 -11 -48 -22 -70 -24 -22 -2 -46 -9 -54 -16 -11
-11 -17 -10 -31 3 -16 14 -45 16 -236 11 -259 -5 -335 3 -376 45 -16 15 -28
38 -28 53 0 14 -6 29 -14 33 -13 8 -36 45 -36 58 0 3 5 3 10 0 7 -4 9 2 5 17
-5 25 10 50 36 60 19 7 32 70 95 443 29 171 46 208 119 251 47 27 84 31 375
39 l195 6 30 29 c35 35 40 36 83 10z m-5246 -26 c-3 -27 1 -41 19 -61 33 -35
96 -76 172 -112 101 -48 203 -179 222 -284 5 -27 12 -37 21 -33 16 6 19 -15 5
-29 -5 -6 -11 -45 -12 -88 -2 -43 -6 -80 -10 -82 -3 -3 -20 -33 -38 -69 -17
-35 -52 -87 -76 -114 -42 -47 -128 -110 -157 -116 -7 -2 -29 -10 -48 -18 -19
-9 -61 -21 -92 -28 -32 -6 -60 -15 -63 -20 -3 -6 -15 -6 -29 0 -13 5 -27 6
-32 2 -4 -4 -3 -1 1 7 6 10 4 13 -7 9 -22 -9 -154 16 -222 42 -192 73 -321
217 -344 386 -12 87 2 203 31 266 13 29 43 74 66 101 37 40 48 47 80 47 21 0
53 -5 71 -12 31 -10 32 -12 14 -25 -50 -36 -109 -103 -133 -153 -23 -48 -26
-67 -26 -150 1 -86 4 -101 33 -161 19 -40 51 -84 78 -109 44 -41 157 -100 218
-114 27 -7 28 -6 15 10 -13 16 -12 16 9 5 12 -6 22 -15 22 -19 0 -16 52 -31
76 -21 17 6 32 5 45 -1 10 -6 19 -7 19 -2 0 15 110 14 110 -1 0 -6 8 -2 18 9
9 12 37 32 61 44 99 49 201 184 201 264 0 28 0 29 -20 11 -25 -23 -25 -9 0 51
24 55 21 83 -20 165 -37 72 -87 116 -199 174 -66 34 -99 58 -121 88 -41 56
-41 107 -1 148 39 38 48 37 43 -7z m-2107 2 c-11 -7 -32 -16 -47 -20 -14 -3
-41 -18 -60 -33 -18 -15 -26 -19 -18 -9 22 28 101 76 124 76 20 0 20 0 1 -14z
m1989 4 c21 -8 26 -16 26 -44 0 -49 -36 -87 -103 -110 -63 -21 -84 -17 -93 19
-8 34 1 55 26 55 11 0 20 4 20 8 0 5 16 16 35 25 19 9 40 26 47 37 7 11 14 20
15 20 1 0 13 -4 27 -10z m-839 -100 c3 -5 1 -10 -4 -10 -6 0 -11 5 -11 10 0 6
2 10 4 10 3 0 8 -4 11 -10z m2565 -41 c0 -16 6 -32 14 -35 25 -10 48 -71 36
-94 -6 -11 -13 -20 -16 -20 -3 0 -2 5 1 10 3 6 -1 10 -9 10 -8 0 -18 -5 -22
-12 -8 -12 -6 -378 2 -533 4 -75 8 -93 25 -107 27 -23 48 -23 56 0 8 22 23 32
49 32 17 0 23 -8 29 -37 4 -21 10 -32 12 -25 3 8 35 12 112 12 192 0 321 11
321 28 0 19 48 8 75 -18 19 -20 19 -20 -1 -47 -12 -16 -36 -33 -53 -39 -18 -6
-124 -12 -234 -13 -208 -2 -223 -5 -211 -43 4 -15 -1 -18 -25 -18 -29 0 -30 2
-19 20 7 11 17 20 23 20 5 0 1 7 -9 15 -17 13 -22 13 -38 -1 -12 -12 -21 -14
-30 -7 -7 6 -30 13 -51 17 -46 9 -103 57 -115 99 -14 45 -25 647 -12 647 6 0
10 5 10 11 0 7 -9 9 -21 6 -17 -4 -19 -3 -10 6 6 6 11 17 11 25 0 12 -3 12
-15 2 -8 -7 -15 -19 -15 -26 0 -8 -4 -14 -10 -14 -5 0 -10 2 -10 5 0 11 93
131 113 147 27 21 37 15 37 -23z m-2396 -38 c-4 -45 -2 -75 6 -90 16 -30 4
-83 -18 -79 -14 3 -17 17 -16 88 1 124 5 150 21 150 12 0 13 -13 7 -69z m-70
-26 c3 -8 1 -15 -4 -15 -6 0 -10 7 -10 15 0 8 2 15 4 15 2 0 6 -7 10 -15z
m6043 9 c-3 -3 -12 -4 -19 -1 -8 3 -5 6 6 6 11 1 17 -2 13 -5z m48 -14 c10
-11 16 -20 13 -20 -3 0 -13 9 -23 20 -10 11 -16 20 -13 20 3 0 13 -9 23 -20z
m-6485 -100 c0 -5 -5 -10 -11 -10 -5 0 -7 5 -4 10 3 6 8 10 11 10 2 0 4 -4 4
-10z m-883 -132 c-3 -8 -6 -5 -6 6 -1 11 2 17 5 13 3 -3 4 -12 1 -19z m1584
-20 c-7 -18 -6 -30 2 -39 10 -11 9 -11 -5 0 -9 7 -15 19 -12 27 12 41 15 46
20 42 2 -3 0 -17 -5 -30z m17 -133 c-3 -3 -9 2 -12 12 -6 14 -5 15 5 6 7 -7
10 -15 7 -18z m12 -85 c0 -5 -4 -10 -9 -10 -6 0 -13 5 -16 10 -3 6 1 10 9 10
9 0 16 -4 16 -10z m175 -148 c-11 -2 -25 -7 -30 -11 -6 -3 -2 2 8 11 11 10 24
15 31 11 7 -5 4 -9 -9 -11z m1955 -382 c7 -28 10 -62 7 -77 -3 -19 0 -27 13
-30 11 -3 20 -17 22 -34 4 -24 2 -29 -11 -23 -9 4 -26 7 -38 7 -22 -1 -23 2
-23 103 0 57 4 104 9 104 5 0 14 -23 21 -50z m1560 -129 c0 -6 -9 -9 -19 -8
-11 0 -17 5 -15 9 7 11 34 10 34 -1z m1783 -6 c1 -5 -6 -11 -15 -13 -11 -2
-18 3 -18 13 0 17 30 18 33 0z m-4893 -25 c0 -5 -9 -10 -21 -10 -11 0 -17 5
-14 10 3 6 13 10 21 10 8 0 14 -4 14 -10z m-1785 -40 c3 -5 1 -10 -4 -10 -6 0
-11 5 -11 10 0 6 2 10 4 10 3 0 8 -4 11 -10z m4875 -185 c-17 -9 -32 -10 -59
-1 l-36 11 35 5 c19 3 46 4 59 1 l24 -4 -23 -12z m-875 6 c-6 -5 -28 -6 -50
-1 l-40 8 50 1 c29 1 45 -3 40 -8z m2662 -5 c4 -3 -15 -6 -41 -6 -31 0 -45 4
-41 11 7 10 71 7 82 -5z m-5793 -34 c14 -9 -50 -19 -89 -13 -25 3 -27 5 -10
11 27 10 85 11 99 2z"/>
<path d="M10305 4950 c-3 -5 -1 -10 4 -10 6 0 11 5 11 10 0 6 -2 10 -4 10 -3
0 -8 -4 -11 -10z"/>
<path d="M10396 4941 c-6 -10 33 -20 52 -13 7 2 12 8 12 13 0 12 -57 12 -64 0z"/>
<path d="M10306 4915 c-3 -9 0 -15 8 -15 7 0 13 7 13 15 0 8 -4 15 -8 15 -4 0
-9 -7 -13 -15z"/>
<path d="M7060 4507 c0 -11 1 -18 3 -16 1 2 8 11 15 20 9 13 9 16 -3 16 -8 0
-15 -9 -15 -20z"/>
<path d="M7240 4505 c-7 -8 -8 -15 -2 -15 5 0 15 7 22 15 7 8 8 15 2 15 -5 0
-15 -7 -22 -15z"/>
<path d="M7087 4499 c8 -8 16 -8 30 0 16 9 14 10 -11 11 -22 0 -27 -3 -19 -11z"/>
<path d="M11165 3860 c-7 -12 2 -12 30 0 19 8 19 9 -2 9 -12 1 -25 -3 -28 -9z"/>
<path d="M5291 4041 c-11 -7 -9 -10 8 -16 11 -3 25 -4 30 0 5 3 12 1 16 -5 3
-5 12 -10 18 -10 7 1 1 10 -12 20 -25 22 -39 24 -60 11z"/>
<path d="M6560 4495 c-7 -9 -10 -18 -7 -21 3 -3 10 4 17 15 13 25 8 27 -10 6z"/>
<path d="M6507 4453 c-2 -5 0 -19 4 -33 9 -25 9 -25 5 2 -2 15 2 29 8 32 7 3
7 5 -1 5 -6 1 -14 -2 -16 -6z"/>
<path d="M1415 4129 c-11 -17 1 -21 15 -4 8 9 8 15 2 15 -6 0 -14 -5 -17 -11z"/>
<path d="M1444 4109 c-19 -22 -19 -22 4 -10 12 6 22 16 22 21 0 15 -5 12 -26
-11z"/>
<path d="M1438 4053 c7 -3 16 -2 19 1 4 3 -2 6 -13 5 -11 0 -14 -3 -6 -6z"/>
<path d="M6005 4120 c-3 -5 1 -10 10 -10 9 0 13 5 10 10 -3 6 -8 10 -10 10 -2
0 -7 -4 -10 -10z"/>
<path d="M9105 4710 c-3 -5 -1 -10 4 -10 6 0 11 5 11 10 0 6 -2 10 -4 10 -3 0
-8 -4 -11 -10z"/>
<path d="M3041 2731 c-7 -5 -12 -14 -9 -21 2 -7 10 -4 22 9 19 21 12 28 -13
12z"/>
<path d="M9335 2349 c-4 -6 -4 -13 0 -17 3 -3 10 -1 14 7 6 10 10 9 15 -5 3
-9 9 -15 11 -12 3 3 3 13 -1 22 -7 18 -29 21 -39 5z"/>
<path d="M9456 2265 c-6 -17 9 -55 23 -55 12 0 8 63 -5 67 -6 2 -14 -3 -18
-12z"/>
<path d="M4915 2100 c3 -5 8 -10 11 -10 2 0 4 5 4 10 0 6 -5 10 -11 10 -5 0
-7 -4 -4 -10z"/>
<path d="M6618 2900 c-9 -17 -15 -30 -13 -30 7 0 45 43 45 52 0 17 -16 6 -32
-22z"/>
<path d="M6570 2855 c0 -5 5 -17 10 -25 5 -8 10 -10 10 -5 0 6 -5 17 -10 25
-5 8 -10 11 -10 5z"/>
</g>
</svg>
