<svg xmlns="http://www.w3.org/2000/svg" viewBox="0 0 367.65 384.63"><defs><style>.cls-1{fill:#ec1a23;}.cls-2{fill:#f7921e;}.cls-3{fill:#f05924;}.cls-4{fill:#f82f51;}.cls-5{fill:#fefefe;}</style></defs><title>Ativo 1</title><g id="Camada_2" data-name="Camada 2"><g id="Camada_2-2" data-name="Camada 2"><ellipse class="cls-1" cx="183.26" cy="198.75" rx="183.26" ry="185.88"/><path class="cls-2" d="M367.65,190.8c0,82.71-79.92,173.52-181.34,173.52C73.17,364.32,4.19,266.44,3.59,183.73,3.05,108.72,65.25,0,183.33,0,273.33,0,367.65,67,367.65,190.8Z"/><path class="cls-3" d="M186.7,311.76c-68.41,0-142.91-33.4-173.39-72,18.24,65.64,87.42,124.6,174.23,124.6,83.28,0,146.41-55.75,170.38-119.46C322.43,280.76,263.91,311.76,186.7,311.76Z"/><circle class="cls-4" cx="182.04" cy="182.16" r="126.9"/><path class="cls-3" d="M58.48,203.43C64,195.14,148.36,114.51,204.2,57.27c10.35,1.62,19.06,4.74,27.9,8.37a106,106,0,0,1,23.66,14h0L82.88,258.06C63.14,237,58.48,203.43,58.48,203.43Z"/><path class="cls-3" d="M307.81,163.59c-5.91,8-92.27,94.47-141.23,142.71a88.73,88.73,0,0,1-23-5.1c-8.59-3.23-22.24-8.13-28.13-13.26l-2.35-2.16C173.3,228.91,226.27,165.89,286.46,109,302.6,131.75,307.81,163.59,307.81,163.59Z"/><path class="cls-1" d="M229.63,179.68l26-27.5A25.3,25.3,0,0,0,219.8,116.4L191.18,145,162.56,116.4a25.37,25.37,0,0,0-35.78,0h0a25.37,25.37,0,0,0,0,35.78L155.4,180.8l-28.62,28.62a25.37,25.37,0,0,0,0,35.78h0a25.37,25.37,0,0,0,35.78,0l27.23-25,27.84,28.08c9.84,9.84,25.68,5.76,35.52-4.08h0c9.84-9.84,12.45-27.51,2.61-37.35Z"/><path class="cls-5" d="M219,174.54l28.62-28.62a25.3,25.3,0,0,0-35.78-35.78l-28.62,28.63-28.62-28.63a25.37,25.37,0,0,0-35.78,0h0a25.37,25.37,0,0,0,0,35.78l28.62,28.62-28.62,28.63a25.36,25.36,0,0,0,0,35.77h0a25.37,25.37,0,0,0,35.78,0l28.62-28.62,28.62,28.62a25.37,25.37,0,0,0,35.78,0h0a25.36,25.36,0,0,0,0-35.77Z"/></g></g></svg>