<svg xmlns="http://www.w3.org/2000/svg" viewBox="0 0 367.65 384.63"><defs><style>.cls-1{fill:#ec1a23;}.cls-2{fill:#f7921e;}.cls-3{fill:#f05924;}.cls-4{fill:#f82f51;}.cls-5{fill:#fefefe;}</style></defs><title>Ativo 2</title><g id="Camada_2" data-name="Camada 2"><g id="Camada_1-2" data-name="Camada 1"><ellipse class="cls-1" cx="183.26" cy="198.75" rx="183.26" ry="185.88"/><path class="cls-2" d="M367.65,190.8c0,82.71-79.92,173.52-181.34,173.52C73.17,364.32,4.19,266.44,3.59,183.73,3.05,108.72,65.25,0,183.33,0,273.33,0,367.65,67,367.65,190.8Z"/><path class="cls-3" d="M186.7,311.76c-68.41,0-142.91-33.4-173.39-72,18.24,65.64,87.42,124.6,174.23,124.6,83.28,0,146.41-55.75,170.38-119.46C322.43,280.76,263.91,311.76,186.7,311.76Z"/><circle class="cls-4" cx="182.04" cy="182.16" r="126.9"/><path class="cls-3" d="M58.48,203.43C64,195.14,148.36,114.51,204.2,57.27c10.35,1.62,19.06,4.74,27.9,8.37a106,106,0,0,1,23.66,14h0L82.88,258.06C63.14,237,58.48,203.43,58.48,203.43Z"/><path class="cls-3" d="M307.81,163.59c-5.91,8-92.27,94.47-141.23,142.71a88.73,88.73,0,0,1-23-5.1c-8.59-3.23-22.24-8.13-28.13-13.26l-2.35-2.16C173.3,228.91,226.27,165.89,286.46,109,302.6,131.75,307.81,163.59,307.81,163.59Z"/><path class="cls-1" d="M274.35,131l-4.29-4c-14.87-9.57-26.35-2.73-35.43,7.09l-75,75.84L143,228l16.9-15.27L130,182.57c-6.71-5.65-20.19-6-28.31,2.81h0c-8.12,8.78-5.54,23.24,3.24,31.36l31.94,31.42L148.92,261s5.47,2.69,5.49,2.7c3.51,1.7,11.75,1.13,16.13-.1,4.14-1.17,5.77-2.69,8.9-6.07l14.75-14.44h0l79.32-79.43C282.59,153.85,284.17,140.11,274.35,131ZM188.82,237c3.7,3.42,1.68,3.63,4.72,5.12C191.64,239.16,192.61,240.49,188.82,237Z"/><path class="cls-5" d="M266.43,126.71l-4.29-4c-14.87-9.57-26.35-2.73-35.43,7.09l-75,75.84-16.63,18L152,208.39l-29.92-30.14c-6.71-5.65-20.19-6-28.31,2.81h0c-8.12,8.78-5.54,23.24,3.24,31.36l31.94,31.42L141,256.7s5.47,2.69,5.49,2.7c3.51,1.7,11.75,1.13,16.13-.1,4.14-1.17,5.77-2.69,8.9-6.07l14.75-14.44h0l79.32-79.43C274.67,149.53,276.25,135.79,266.43,126.71Zm-85.53,106c3.7,3.42,1.68,3.63,4.72,5.12C183.72,234.84,184.69,236.17,180.9,232.66Z"/></g></g></svg>